<svg width="24" height="24" viewBox="0 0 24 24" fill="none" xmlns="http://www.w3.org/2000/svg">
<g clip-path="url(#clip0)">
<path d="M21.7919 18.7038C21.429 19.5423 20.9994 20.3141 20.5016 21.0237C19.8231 21.9911 19.2676 22.6607 18.8394 23.0325C18.1758 23.6429 17.4647 23.9555 16.7032 23.9732C16.1566 23.9732 15.4973 23.8177 14.7299 23.5021C13.96 23.1881 13.2525 23.0325 12.6056 23.0325C11.9271 23.0325 11.1994 23.1881 10.4211 23.5021C9.64152 23.8177 9.01354 23.9821 8.53341 23.9984C7.80321 24.0295 7.07538 23.7081 6.34889 23.0325C5.8852 22.6281 5.30522 21.9348 4.61043 20.9526C3.86497 19.9037 3.25211 18.6875 2.77197 17.3008C2.25777 15.8031 2 14.3528 2 12.9487C2 11.3403 2.34754 9.95307 3.04367 8.79059C3.59076 7.85684 4.31859 7.12027 5.22952 6.57955C6.14045 6.03882 7.12472 5.76328 8.18468 5.74565C8.76466 5.74565 9.52523 5.92505 10.4704 6.27763C11.4129 6.6314 12.018 6.8108 12.2834 6.8108C12.4817 6.8108 13.154 6.60103 14.2937 6.18282C15.3714 5.79498 16.281 5.63439 17.0262 5.69765C19.0454 5.86061 20.5623 6.65658 21.5712 8.09061C19.7653 9.1848 18.872 10.7173 18.8898 12.6834C18.9061 14.2147 19.4616 15.489 20.5534 16.5009C21.0482 16.9705 21.6008 17.3334 22.2156 17.5912C22.0823 17.9779 21.9416 18.3482 21.7919 18.7038V18.7038ZM17.161 0.480625C17.161 1.6809 16.7225 2.80159 15.8484 3.83889C14.7936 5.07204 13.5178 5.78461 12.1343 5.67217C12.1167 5.52817 12.1065 5.37662 12.1065 5.21737C12.1065 4.06511 12.6081 2.83196 13.4989 1.82369C13.9436 1.31319 14.5092 0.888716 15.1951 0.550103C15.8795 0.216543 16.5269 0.0320773 17.1358 0.000488281C17.1536 0.160946 17.161 0.321414 17.161 0.480609V0.480625Z" fill="white"/>
</g>
<defs>
<clipPath id="clip0">
<rect width="24" height="24" fill="white"/>
</clipPath>
</defs>
</svg>
