<svg width="611" height="387" viewBox="0 0 611 387" fill="none" xmlns="http://www.w3.org/2000/svg">
<g clip-path="url(#clip0)">
<rect width="611" height="387" rx="20" fill="url(#paint0_linear)"/>
<path d="M-37.3981 108.677C-41.1927 95.8603 -31.5879 83 -18.2209 83H623.384C636.396 83 645.943 95.2278 642.787 107.851L611.597 232.611C611.201 234.198 611 235.827 611 237.462V367C611 378.046 602.046 387 591 387H20C8.95429 387 0 378.046 0 367V237.898C0 235.976 -0.277103 234.064 -0.822765 232.221L-37.3981 108.677Z" fill="url(#paint1_linear)"/>
<path d="M50.8438 34.25V57H47.8438V36.7188H39.6875L39.2812 45.7344C39.125 48.7552 38.8125 51.026 38.3438 52.5469C37.8854 54.0677 37.2083 55.1875 36.3125 55.9062C35.4167 56.6146 34.2188 56.9792 32.7188 57H31.7344V54.5469L32.3594 54.5156C33.3281 54.4427 34.0729 54.1302 34.5938 53.5781C35.1146 53.0156 35.5104 52.125 35.7812 50.9062C36.0521 49.6875 36.2448 47.8125 36.3594 45.2812L36.8281 34.25H50.8438ZM70.6406 34.25H73.6406V57H70.6406V39.4688L59.4375 57H56.4219V34.25H59.4375V51.7812L70.6406 34.25ZM95.1562 34.25V57H92.1406V47.5781C91.0469 47.8906 90.0521 48.1094 89.1562 48.2344C88.2604 48.349 87.2396 48.4062 86.0938 48.4062C83.5 48.4062 81.5729 47.8438 80.3125 46.7188C79.0521 45.5938 78.4062 43.8698 78.375 41.5469V34.25H81.3906V41.4688C81.401 43.0521 81.7604 44.1927 82.4688 44.8906C83.1875 45.5885 84.3958 45.9375 86.0938 45.9375C88.0729 45.9375 90.0885 45.6562 92.1406 45.0938V34.25H95.1562ZM118.062 57H115.047V46.4844H103.578V57H100.578V34.25H103.578V44.0312H115.047V34.25H118.062V57ZM126.531 43.5312H132.188C134.562 43.5625 136.417 44.1719 137.75 45.3594C139.083 46.5469 139.75 48.1615 139.75 50.2031C139.75 52.2552 139.078 53.8906 137.734 55.1094C136.391 56.3281 134.557 56.9583 132.234 57H123.531V34.25H126.531V43.5312ZM126.531 46V54.5469H132.016C133.505 54.5469 134.661 54.151 135.484 53.3594C136.318 52.5677 136.734 51.5052 136.734 50.1719C136.734 48.8906 136.333 47.8802 135.531 47.1406C134.74 46.401 133.609 46.0208 132.141 46H126.531ZM145.5 57H142.5V34.25H145.5V57ZM165.422 34.25H168.422V57H165.422V39.4688L154.219 57H151.203V34.25H154.219V51.7812L165.422 34.25ZM164.578 28.5938C164.578 29.8542 164.146 30.8698 163.281 31.6406C162.427 32.401 161.302 32.7812 159.906 32.7812C158.51 32.7812 157.38 32.3958 156.516 31.625C155.651 30.8542 155.219 29.8438 155.219 28.5938H157.578C157.578 29.3229 157.776 29.8958 158.172 30.3125C158.568 30.7188 159.146 30.9219 159.906 30.9219C160.635 30.9219 161.203 30.7188 161.609 30.3125C162.026 29.9062 162.234 29.3333 162.234 28.5938H164.578ZM187.734 46.7812H184.969V57H181.969V34.25H184.969V44.2812H187.312L195.266 34.25H199L190.312 45.2812L199.641 57H195.969L187.734 46.7812ZM214.953 51.0625H205.422L203.281 57H200.188L208.875 34.25H211.5L220.203 57H217.125L214.953 51.0625ZM206.328 48.5938H214.062L210.188 37.9531L206.328 48.5938ZM237.141 36.7188H226.172V43.5312H231.828C234.203 43.5625 236.057 44.1719 237.391 45.3594C238.724 46.5469 239.391 48.1615 239.391 50.2031C239.391 52.2552 238.719 53.8906 237.375 55.1094C236.031 56.3281 234.198 56.9583 231.875 57H223.156V34.25H237.141V36.7188ZM226.172 46V54.5469H231.656C233.146 54.5469 234.302 54.151 235.125 53.3594C235.958 52.5677 236.375 51.5052 236.375 50.1719C236.375 48.8906 235.974 47.8802 235.172 47.1406C234.38 46.401 233.25 46.0208 231.781 46H226.172ZM257.797 34.25H260.797V57H257.797V39.4688L246.594 57H243.578V34.25H246.594V51.7812L257.797 34.25ZM283.75 57H280.734V46.4844H269.266V57H266.266V34.25H269.266V44.0312H280.734V34.25H283.75V57ZM301.938 46.4844H292.078V54.5469H303.531V57H289.078V34.25H303.375V36.7188H292.078V44.0312H301.938V46.4844ZM323.297 36.7188H315.984V57H313V36.7188H305.703V34.25H323.297V36.7188Z" fill="white"/>
<path d="M76.8438 139.25V162H73.8438V141.719H65.6875L65.2812 150.734C65.125 153.755 64.8125 156.026 64.3438 157.547C63.8854 159.068 63.2083 160.188 62.3125 160.906C61.4167 161.615 60.2188 161.979 58.7188 162H57.7344V159.547L58.3594 159.516C59.3281 159.443 60.0729 159.13 60.5938 158.578C61.1146 158.016 61.5104 157.125 61.7812 155.906C62.0521 154.688 62.2448 152.812 62.3594 150.281L62.8281 139.25H76.8438ZM81.0781 153.391C81.0781 151.734 81.401 150.245 82.0469 148.922C82.7031 147.599 83.6094 146.578 84.7656 145.859C85.9323 145.141 87.2604 144.781 88.75 144.781C91.0521 144.781 92.9115 145.578 94.3281 147.172C95.7552 148.766 96.4688 150.885 96.4688 153.531V153.734C96.4688 155.38 96.151 156.859 95.5156 158.172C94.8906 159.474 93.9896 160.49 92.8125 161.219C91.6458 161.948 90.3021 162.312 88.7812 162.312C86.4896 162.312 84.6302 161.516 83.2031 159.922C81.7865 158.328 81.0781 156.219 81.0781 153.594V153.391ZM83.9844 153.734C83.9844 155.609 84.4167 157.115 85.2812 158.25C86.1562 159.385 87.3229 159.953 88.7812 159.953C90.25 159.953 91.4167 159.38 92.2812 158.234C93.1458 157.078 93.5781 155.464 93.5781 153.391C93.5781 151.536 93.1354 150.036 92.25 148.891C91.375 147.734 90.2083 147.156 88.75 147.156C87.3229 147.156 86.1719 147.724 85.2969 148.859C84.4219 149.995 83.9844 151.62 83.9844 153.734ZM111.016 147.484H103.219V162H100.312V145.094H111.016V147.484ZM124.469 145.094H127.359V162H124.469V149.672L116.672 162H113.781V145.094H116.672V157.438L124.469 145.094ZM145.812 162H142.922V154.781H135.156V162H132.25V145.094H135.156V152.422H142.922V145.094H145.812V162Z" fill="#2C4351"/>
<path d="M77.0156 249H74V228.719H62.7812V249H59.7812V226.25H77.0156V249ZM92.4688 249C92.3021 248.667 92.1667 248.073 92.0625 247.219C90.7188 248.615 89.1146 249.312 87.25 249.312C85.5833 249.312 84.2135 248.844 83.1406 247.906C82.0781 246.958 81.5469 245.76 81.5469 244.312C81.5469 242.552 82.2135 241.188 83.5469 240.219C84.8906 239.24 86.776 238.75 89.2031 238.75H92.0156V237.422C92.0156 236.411 91.7135 235.609 91.1094 235.016C90.5052 234.411 89.6146 234.109 88.4375 234.109C87.4062 234.109 86.5417 234.37 85.8438 234.891C85.1458 235.411 84.7969 236.042 84.7969 236.781H81.8906C81.8906 235.938 82.1875 235.125 82.7812 234.344C83.3854 233.552 84.1979 232.927 85.2188 232.469C86.25 232.01 87.3802 231.781 88.6094 231.781C90.5573 231.781 92.0833 232.271 93.1875 233.25C94.2917 234.219 94.8646 235.557 94.9062 237.266V245.047C94.9062 246.599 95.1042 247.833 95.5 248.75V249H92.4688ZM87.6719 246.797C88.5781 246.797 89.4375 246.562 90.25 246.094C91.0625 245.625 91.651 245.016 92.0156 244.266V240.797H89.75C86.2083 240.797 84.4375 241.833 84.4375 243.906C84.4375 244.812 84.7396 245.521 85.3438 246.031C85.9479 246.542 86.724 246.797 87.6719 246.797ZM113.719 240.734C113.719 243.307 113.13 245.38 111.953 246.953C110.776 248.526 109.182 249.312 107.172 249.312C105.12 249.312 103.505 248.661 102.328 247.359V255.5H99.4375V232.094H102.078L102.219 233.969C103.396 232.51 105.031 231.781 107.125 231.781C109.156 231.781 110.76 232.547 111.938 234.078C113.125 235.609 113.719 237.74 113.719 240.469V240.734ZM110.828 240.406C110.828 238.5 110.422 236.995 109.609 235.891C108.797 234.786 107.682 234.234 106.266 234.234C104.516 234.234 103.203 235.01 102.328 236.562V244.641C103.193 246.182 104.516 246.953 106.297 246.953C107.682 246.953 108.781 246.406 109.594 245.312C110.417 244.208 110.828 242.573 110.828 240.406ZM116.641 240.391C116.641 238.734 116.964 237.245 117.609 235.922C118.266 234.599 119.172 233.578 120.328 232.859C121.495 232.141 122.823 231.781 124.312 231.781C126.615 231.781 128.474 232.578 129.891 234.172C131.318 235.766 132.031 237.885 132.031 240.531V240.734C132.031 242.38 131.714 243.859 131.078 245.172C130.453 246.474 129.552 247.49 128.375 248.219C127.208 248.948 125.865 249.312 124.344 249.312C122.052 249.312 120.193 248.516 118.766 246.922C117.349 245.328 116.641 243.219 116.641 240.594V240.391ZM119.547 240.734C119.547 242.609 119.979 244.115 120.844 245.25C121.719 246.385 122.885 246.953 124.344 246.953C125.812 246.953 126.979 246.38 127.844 245.234C128.708 244.078 129.141 242.464 129.141 240.391C129.141 238.536 128.698 237.036 127.812 235.891C126.938 234.734 125.771 234.156 124.312 234.156C122.885 234.156 121.734 234.724 120.859 235.859C119.984 236.995 119.547 238.62 119.547 240.734ZM149.266 232.094V249H146.359V234.484H140.609L140.266 240.812C140.078 243.719 139.589 245.797 138.797 247.047C138.016 248.297 136.771 248.948 135.062 249H133.906V246.453L134.734 246.391C135.672 246.286 136.344 245.745 136.75 244.766C137.156 243.786 137.417 241.974 137.531 239.328L137.844 232.094H149.266ZM157.062 237.922H161.453C163.37 237.943 164.885 238.443 166 239.422C167.115 240.401 167.672 241.729 167.672 243.406C167.672 245.094 167.099 246.448 165.953 247.469C164.807 248.49 163.266 249 161.328 249H154.172V232.094H157.062V237.922ZM157.062 240.281V246.641H161.359C162.443 246.641 163.281 246.365 163.875 245.812C164.469 245.25 164.766 244.484 164.766 243.516C164.766 242.578 164.474 241.812 163.891 241.219C163.318 240.615 162.51 240.302 161.469 240.281H157.062Z" fill="#2C4351"/>
<path d="M357.641 327.094V336H354.641V313.25H363.031C365.521 313.25 367.469 313.885 368.875 315.156C370.292 316.427 371 318.109 371 320.203C371 322.411 370.307 324.115 368.922 325.312C367.547 326.5 365.573 327.094 363 327.094H357.641ZM357.641 324.641H363.031C364.635 324.641 365.865 324.266 366.719 323.516C367.573 322.755 368 321.661 368 320.234C368 318.88 367.573 317.797 366.719 316.984C365.865 316.172 364.693 315.75 363.203 315.719H357.641V324.641ZM381.172 336.312C378.88 336.312 377.016 335.562 375.578 334.062C374.141 332.552 373.422 330.536 373.422 328.016V327.484C373.422 325.807 373.74 324.312 374.375 323C375.021 321.677 375.917 320.646 377.062 319.906C378.219 319.156 379.469 318.781 380.812 318.781C383.01 318.781 384.719 319.505 385.938 320.953C387.156 322.401 387.766 324.474 387.766 327.172V328.375H376.312C376.354 330.042 376.839 331.391 377.766 332.422C378.703 333.443 379.891 333.953 381.328 333.953C382.349 333.953 383.214 333.745 383.922 333.328C384.63 332.911 385.25 332.359 385.781 331.672L387.547 333.047C386.13 335.224 384.005 336.312 381.172 336.312ZM380.812 321.156C379.646 321.156 378.667 321.583 377.875 322.438C377.083 323.281 376.594 324.469 376.406 326H384.875V325.781C384.792 324.312 384.396 323.177 383.688 322.375C382.979 321.562 382.021 321.156 380.812 321.156ZM402.047 321.484H394.25V336H391.344V319.094H402.047V321.484ZM415.5 319.094H418.391V336H415.5V323.672L407.703 336H404.812V319.094H407.703V331.438L415.5 319.094ZM429.812 333.953C430.844 333.953 431.745 333.641 432.516 333.016C433.286 332.391 433.714 331.609 433.797 330.672H436.531C436.479 331.641 436.146 332.562 435.531 333.438C434.917 334.312 434.094 335.01 433.062 335.531C432.042 336.052 430.958 336.312 429.812 336.312C427.51 336.312 425.677 335.547 424.312 334.016C422.958 332.474 422.281 330.37 422.281 327.703V327.219C422.281 325.573 422.583 324.109 423.188 322.828C423.792 321.547 424.656 320.552 425.781 319.844C426.917 319.135 428.255 318.781 429.797 318.781C431.693 318.781 433.266 319.349 434.516 320.484C435.776 321.62 436.448 323.094 436.531 324.906H433.797C433.714 323.812 433.297 322.917 432.547 322.219C431.807 321.51 430.891 321.156 429.797 321.156C428.328 321.156 427.188 321.688 426.375 322.75C425.573 323.802 425.172 325.328 425.172 327.328V327.875C425.172 329.823 425.573 331.323 426.375 332.375C427.177 333.427 428.323 333.953 429.812 333.953ZM452.344 321.438H446.672V336H443.781V321.438H438.219V319.094H452.344V321.438ZM469.438 327.734C469.438 330.307 468.849 332.38 467.672 333.953C466.495 335.526 464.901 336.312 462.891 336.312C460.839 336.312 459.224 335.661 458.047 334.359V342.5H455.156V319.094H457.797L457.938 320.969C459.115 319.51 460.75 318.781 462.844 318.781C464.875 318.781 466.479 319.547 467.656 321.078C468.844 322.609 469.438 324.74 469.438 327.469V327.734ZM466.547 327.406C466.547 325.5 466.141 323.995 465.328 322.891C464.516 321.786 463.401 321.234 461.984 321.234C460.234 321.234 458.922 322.01 458.047 323.562V331.641C458.911 333.182 460.234 333.953 462.016 333.953C463.401 333.953 464.5 333.406 465.312 332.312C466.135 331.208 466.547 329.573 466.547 327.406ZM483.562 336C483.396 335.667 483.26 335.073 483.156 334.219C481.812 335.615 480.208 336.312 478.344 336.312C476.677 336.312 475.307 335.844 474.234 334.906C473.172 333.958 472.641 332.76 472.641 331.312C472.641 329.552 473.307 328.188 474.641 327.219C475.984 326.24 477.87 325.75 480.297 325.75H483.109V324.422C483.109 323.411 482.807 322.609 482.203 322.016C481.599 321.411 480.708 321.109 479.531 321.109C478.5 321.109 477.635 321.37 476.938 321.891C476.24 322.411 475.891 323.042 475.891 323.781H472.984C472.984 322.938 473.281 322.125 473.875 321.344C474.479 320.552 475.292 319.927 476.312 319.469C477.344 319.01 478.474 318.781 479.703 318.781C481.651 318.781 483.177 319.271 484.281 320.25C485.385 321.219 485.958 322.557 486 324.266V332.047C486 333.599 486.198 334.833 486.594 335.75V336H483.562ZM478.766 333.797C479.672 333.797 480.531 333.562 481.344 333.094C482.156 332.625 482.745 332.016 483.109 331.266V327.797H480.844C477.302 327.797 475.531 328.833 475.531 330.906C475.531 331.812 475.833 332.521 476.438 333.031C477.042 333.542 477.818 333.797 478.766 333.797ZM490.781 319.094H493.688V333.641H501.469V319.094H504.359V333.641H506.375L506.094 341.016H503.5V336H490.781V319.094ZM520.438 319.094H523.328V336H520.438V323.672L512.641 336H509.75V319.094H512.641V331.438L520.438 319.094ZM540.891 319.094V336H537.984V329.422H533.625L529.641 336H526.516L530.766 328.984C529.682 328.589 528.849 327.979 528.266 327.156C527.693 326.323 527.406 325.354 527.406 324.25C527.406 322.708 527.984 321.469 529.141 320.531C530.297 319.583 531.844 319.104 533.781 319.094H540.891ZM530.312 324.281C530.312 325.104 530.594 325.771 531.156 326.281C531.719 326.781 532.464 327.036 533.391 327.047H537.984V321.438H533.828C532.755 321.438 531.901 321.703 531.266 322.234C530.63 322.755 530.312 323.438 530.312 324.281Z" fill="#2C4351"/>
<path fill-rule="evenodd" clip-rule="evenodd" d="M558.607 29.7574C557.956 30.4083 557.956 31.4636 558.607 32.1144L566.856 40.364L558.607 48.6136C557.956 49.2645 557.956 50.3197 558.607 50.9706C559.258 51.6215 560.313 51.6215 560.964 50.9706L569.213 42.7211L577.463 50.9706C578.114 51.6215 579.169 51.6215 579.82 50.9706C580.471 50.3197 580.471 49.2645 579.82 48.6136L571.57 40.364L579.82 32.1144C580.471 31.4635 580.471 30.4083 579.82 29.7574C579.169 29.1065 578.114 29.1065 577.463 29.7574L569.213 38.007L560.964 29.7574C560.313 29.1065 559.257 29.1065 558.607 29.7574Z" fill="white"/>
<rect x="37" y="117" width="540" height="68" rx="9" stroke="#2F4654" stroke-width="2"/>
<rect x="37" y="204" width="540" height="68" rx="9" stroke="#2F4654" stroke-width="2"/>
<rect x="319" y="291" width="258" height="68" rx="9" stroke="#2F4654" stroke-width="2"/>
<rect x="37" y="291" width="258" height="68" rx="9" fill="#2E4654" stroke="#2E4654" stroke-width="2"/>
<path d="M130.469 336H127.453V315.719H116.234V336H113.234V313.25H130.469V336ZM145.922 336C145.755 335.667 145.62 335.073 145.516 334.219C144.172 335.615 142.568 336.312 140.703 336.312C139.036 336.312 137.667 335.844 136.594 334.906C135.531 333.958 135 332.76 135 331.312C135 329.552 135.667 328.188 137 327.219C138.344 326.24 140.229 325.75 142.656 325.75H145.469V324.422C145.469 323.411 145.167 322.609 144.562 322.016C143.958 321.411 143.068 321.109 141.891 321.109C140.859 321.109 139.995 321.37 139.297 321.891C138.599 322.411 138.25 323.042 138.25 323.781H135.344C135.344 322.938 135.641 322.125 136.234 321.344C136.839 320.552 137.651 319.927 138.672 319.469C139.703 319.01 140.833 318.781 142.062 318.781C144.01 318.781 145.536 319.271 146.641 320.25C147.745 321.219 148.318 322.557 148.359 324.266V332.047C148.359 333.599 148.557 334.833 148.953 335.75V336H145.922ZM141.125 333.797C142.031 333.797 142.891 333.562 143.703 333.094C144.516 332.625 145.104 332.016 145.469 331.266V327.797H143.203C139.661 327.797 137.891 328.833 137.891 330.906C137.891 331.812 138.193 332.521 138.797 333.031C139.401 333.542 140.177 333.797 141.125 333.797ZM167.172 327.734C167.172 330.307 166.583 332.38 165.406 333.953C164.229 335.526 162.635 336.312 160.625 336.312C158.573 336.312 156.958 335.661 155.781 334.359V342.5H152.891V319.094H155.531L155.672 320.969C156.849 319.51 158.484 318.781 160.578 318.781C162.609 318.781 164.214 319.547 165.391 321.078C166.578 322.609 167.172 324.74 167.172 327.469V327.734ZM164.281 327.406C164.281 325.5 163.875 323.995 163.062 322.891C162.25 321.786 161.135 321.234 159.719 321.234C157.969 321.234 156.656 322.01 155.781 323.562V331.641C156.646 333.182 157.969 333.953 159.75 333.953C161.135 333.953 162.234 333.406 163.047 332.312C163.87 331.208 164.281 329.573 164.281 327.406ZM170.094 327.391C170.094 325.734 170.417 324.245 171.062 322.922C171.719 321.599 172.625 320.578 173.781 319.859C174.948 319.141 176.276 318.781 177.766 318.781C180.068 318.781 181.927 319.578 183.344 321.172C184.771 322.766 185.484 324.885 185.484 327.531V327.734C185.484 329.38 185.167 330.859 184.531 332.172C183.906 333.474 183.005 334.49 181.828 335.219C180.661 335.948 179.318 336.312 177.797 336.312C175.505 336.312 173.646 335.516 172.219 333.922C170.802 332.328 170.094 330.219 170.094 327.594V327.391ZM173 327.734C173 329.609 173.432 331.115 174.297 332.25C175.172 333.385 176.339 333.953 177.797 333.953C179.266 333.953 180.432 333.38 181.297 332.234C182.161 331.078 182.594 329.464 182.594 327.391C182.594 325.536 182.151 324.036 181.266 322.891C180.391 321.734 179.224 321.156 177.766 321.156C176.339 321.156 175.188 321.724 174.312 322.859C173.438 323.995 173 325.62 173 327.734ZM202.719 319.094V336H199.812V321.484H194.062L193.719 327.812C193.531 330.719 193.042 332.797 192.25 334.047C191.469 335.297 190.224 335.948 188.516 336H187.359V333.453L188.188 333.391C189.125 333.286 189.797 332.745 190.203 331.766C190.609 330.786 190.87 328.974 190.984 326.328L191.297 319.094H202.719ZM210.516 324.922H214.906C216.823 324.943 218.339 325.443 219.453 326.422C220.568 327.401 221.125 328.729 221.125 330.406C221.125 332.094 220.552 333.448 219.406 334.469C218.26 335.49 216.719 336 214.781 336H207.625V319.094H210.516V324.922ZM210.516 327.281V333.641H214.812C215.896 333.641 216.734 333.365 217.328 332.812C217.922 332.25 218.219 331.484 218.219 330.516C218.219 329.578 217.927 328.812 217.344 328.219C216.771 327.615 215.964 327.302 214.922 327.281H210.516Z" fill="white"/>
</g>
<defs>
<linearGradient id="paint0_linear" x1="598.5" y1="5.32096e-05" x2="1.54347e-05" y2="387" gradientUnits="userSpaceOnUse">
<stop stop-color="#2F4654"/>
<stop offset="1" stop-color="#11202D"/>
</linearGradient>
<linearGradient id="paint1_linear" x1="305.5" y1="83" x2="306" y2="745" gradientUnits="userSpaceOnUse">
<stop stop-color="white"/>
<stop offset="1" stop-color="white" stop-opacity="0"/>
</linearGradient>
<clipPath id="clip0">
<rect width="611" height="387" fill="white"/>
</clipPath>
</defs>
</svg>
