<svg width="611" height="387" viewBox="0 0 611 387" fill="none" xmlns="http://www.w3.org/2000/svg">
<rect width="611" height="387" rx="20" fill="url(#paint0_linear)"/>
<mask id="mask0" mask-type="alpha" maskUnits="userSpaceOnUse" x="0" y="0" width="611" height="387">
<rect width="611" height="387" rx="20" fill="#C4C4C4"/>
</mask>
<g mask="url(#mask0)">
<g opacity="0.2">
<path opacity="0.5" d="M491.454 32.2488C495.635 16.6474 511.671 7.38886 527.272 11.5692L563.011 21.1455C563.948 21.3964 564.503 22.3585 564.252 23.2946C560.072 38.896 544.036 48.1545 528.434 43.9742L492.695 34.3979C491.759 34.147 491.203 33.1849 491.454 32.2488Z" fill="white"/>
<path opacity="0.5" d="M491.454 84.7922C495.635 69.1908 511.671 59.9323 527.272 64.1126L563.011 73.6889C563.948 73.9398 564.503 74.9019 564.252 75.838C560.072 91.4394 544.036 100.698 528.434 96.5176L492.695 86.9412C491.759 86.6904 491.203 85.7283 491.454 84.7922Z" fill="white"/>
<path opacity="0.5" d="M491.454 137.336C495.635 121.734 511.671 112.476 527.272 116.656L563.011 126.232C563.948 126.483 564.503 127.445 564.252 128.381C560.072 143.983 544.036 153.241 528.434 149.061L492.695 139.485C491.759 139.234 491.203 138.272 491.454 137.336Z" fill="white"/>
<path opacity="0.5" d="M491.454 189.879C495.635 174.278 511.671 165.019 527.272 169.199L563.011 178.776C563.948 179.027 564.503 179.989 564.252 180.925C560.072 196.526 544.036 205.785 528.434 201.604L492.695 192.028C491.759 191.777 491.203 190.815 491.454 189.879Z" fill="white"/>
<path opacity="0.5" d="M491.454 242.422C495.635 226.821 511.671 217.562 527.272 221.743L563.011 231.319C563.948 231.57 564.503 232.532 564.252 233.468C560.072 249.07 544.036 258.328 528.434 254.148L492.695 244.571C491.759 244.321 491.203 243.358 491.454 242.422Z" fill="white"/>
<path opacity="0.5" d="M491.454 294.966C495.635 279.364 511.671 270.106 527.272 274.286L563.011 283.863C563.948 284.113 564.503 285.076 564.252 286.012C560.072 301.613 544.036 310.872 528.434 306.691L492.695 297.115C491.759 296.864 491.203 295.902 491.454 294.966Z" fill="white"/>
<path opacity="0.5" d="M491.454 347.509C495.635 331.908 511.671 322.649 527.272 326.83L563.011 336.406C563.948 336.657 564.503 337.619 564.252 338.555C560.072 354.156 544.036 363.415 528.434 359.235L492.695 349.658C491.759 349.407 491.203 348.445 491.454 347.509Z" fill="white"/>
<path opacity="0.5" d="M491.454 400.053C495.635 384.451 511.671 375.193 527.272 379.373L563.011 388.949C563.948 389.2 564.503 390.162 564.252 391.098C560.072 406.7 544.036 415.958 528.434 411.778L492.695 402.202C491.759 401.951 491.203 400.989 491.454 400.053Z" fill="white"/>
<path opacity="0.5" d="M557.233 5.45003C562.627 -14.6808 583.319 -26.6273 603.45 -21.2332L649.565 -8.87672C650.773 -8.55308 651.49 -7.31156 651.166 -6.10371C645.772 14.0271 625.08 25.9736 604.949 20.5796L558.834 8.22304C557.626 7.8994 556.91 6.65788 557.233 5.45003Z" fill="white"/>
<path opacity="0.5" d="M557.233 58.2963C562.627 38.1655 583.319 26.219 603.45 31.6131L649.565 43.9696C650.773 44.2932 651.49 45.5348 651.166 46.7426C645.772 66.8734 625.08 78.8199 604.949 73.4259L558.834 61.0694C557.626 60.7457 556.91 59.5042 557.233 58.2963Z" fill="white"/>
<path opacity="0.5" d="M557.233 111.143C562.627 91.0119 583.319 79.0654 603.45 84.4594L649.565 96.8159C650.773 97.1395 651.49 98.3811 651.166 99.5889C645.772 119.72 625.08 131.666 604.949 126.272L558.834 113.916C557.626 113.592 556.91 112.351 557.233 111.143Z" fill="white"/>
<path opacity="0.5" d="M557.233 163.989C562.627 143.858 583.319 131.912 603.45 137.306L649.565 149.662C650.773 149.986 651.49 151.227 651.166 152.435C645.772 172.566 625.08 184.513 604.949 179.118L558.834 166.762C557.626 166.438 556.91 165.197 557.233 163.989Z" fill="white"/>
<path opacity="0.5" d="M557.233 216.835C562.627 196.705 583.319 184.758 603.45 190.152L649.565 202.509C650.773 202.832 651.49 204.074 651.166 205.282C645.772 225.412 625.08 237.359 604.949 231.965L558.834 219.608C557.626 219.285 556.91 218.043 557.233 216.835Z" fill="white"/>
<path opacity="0.5" d="M557.233 269.682C562.627 249.551 583.319 237.604 603.45 242.998L649.565 255.355C650.773 255.678 651.49 256.92 651.166 258.128C645.772 278.259 625.08 290.205 604.949 284.811L558.834 272.455C557.626 272.131 556.91 270.889 557.233 269.682Z" fill="white"/>
<path opacity="0.5" d="M557.233 322.528C562.627 302.397 583.319 290.451 603.45 295.845L649.565 308.201C650.773 308.525 651.49 309.766 651.166 310.974C645.772 331.105 625.08 343.051 604.949 337.657L558.834 325.301C557.626 324.977 556.91 323.736 557.233 322.528Z" fill="white"/>
<path opacity="0.5" d="M557.233 375.374C562.627 355.243 583.319 343.297 603.45 348.691L649.565 361.047C650.773 361.371 651.49 362.613 651.166 363.82C645.772 383.951 625.08 395.898 604.949 390.504L558.834 378.147C557.626 377.824 556.91 376.582 557.233 375.374Z" fill="white"/>
<path opacity="0.5" d="M443.408 8.95877C446.509 -2.61644 458.407 -9.48568 469.982 -6.38412L496.498 0.720886C497.193 0.906981 497.605 1.62085 497.419 2.31537C494.317 13.8906 482.42 20.7598 470.844 17.6582L444.328 10.5532C443.634 10.3672 443.221 9.65328 443.408 8.95877Z" fill="white"/>
<path opacity="0.5" d="M443.408 60.9588C446.509 49.3836 458.407 42.5143 469.982 45.6159L496.498 52.7209C497.193 52.907 497.605 53.6209 497.419 54.3154C494.317 65.8906 482.42 72.7598 470.844 69.6582L444.328 62.5532C443.634 62.3672 443.221 61.6533 443.408 60.9588Z" fill="white"/>
<path opacity="0.5" d="M443.408 112.959C446.509 101.384 458.407 94.5143 469.982 97.6159L496.498 104.721C497.193 104.907 497.605 105.621 497.419 106.315C494.317 117.891 482.42 124.76 470.844 121.658L444.328 114.553C443.634 114.367 443.221 113.653 443.408 112.959Z" fill="white"/>
<path opacity="0.5" d="M443.408 164.959C446.509 153.384 458.407 146.514 469.982 149.616L496.498 156.721C497.193 156.907 497.605 157.621 497.419 158.315C494.317 169.891 482.42 176.76 470.844 173.658L444.328 166.553C443.634 166.367 443.221 165.653 443.408 164.959Z" fill="white"/>
<path opacity="0.5" d="M443.408 216.959C446.509 205.384 458.407 198.514 469.982 201.616L496.498 208.721C497.193 208.907 497.605 209.621 497.419 210.315C494.317 221.891 482.42 228.76 470.844 225.658L444.328 218.553C443.634 218.367 443.221 217.653 443.408 216.959Z" fill="white"/>
<path opacity="0.5" d="M443.408 268.959C446.509 257.384 458.407 250.514 469.982 253.616L496.498 260.721C497.193 260.907 497.605 261.621 497.419 262.315C494.317 273.891 482.42 280.76 470.844 277.658L444.328 270.553C443.634 270.367 443.221 269.653 443.408 268.959Z" fill="white"/>
<path opacity="0.5" d="M443.408 320.959C446.509 309.384 458.407 302.514 469.982 305.616L496.498 312.721C497.193 312.907 497.605 313.621 497.419 314.315C494.317 325.891 482.42 332.76 470.844 329.658L444.328 322.553C443.634 322.367 443.221 321.653 443.408 320.959Z" fill="white"/>
<path opacity="0.5" d="M443.408 372.959C446.509 361.384 458.407 354.514 469.982 357.616L496.498 364.721C497.193 364.907 497.605 365.621 497.419 366.315C494.317 377.891 482.42 384.76 470.844 381.658L444.328 374.553C443.634 374.367 443.221 373.653 443.408 372.959Z" fill="white"/>
<path opacity="0.5" d="M401.069 33.225C403.767 23.1596 414.112 17.1864 424.178 19.8834L447.235 26.0616C447.839 26.2235 448.198 26.8442 448.036 27.4481C445.339 37.5135 434.993 43.4868 424.928 40.7898L401.87 34.6115C401.266 34.4497 400.908 33.8289 401.069 33.225Z" fill="white"/>
<path opacity="0.5" d="M401.07 87.8982C403.767 77.8328 414.112 71.8595 424.178 74.5565L447.235 80.7348C447.839 80.8966 448.198 81.5174 448.036 82.1213C445.339 92.1867 434.993 98.16 424.928 95.4629L401.87 89.2847C401.266 89.1229 400.908 88.5021 401.07 87.8982Z" fill="white"/>
<path opacity="0.5" d="M401.07 142.571C403.767 132.506 414.112 126.533 424.178 129.23L447.235 135.408C447.839 135.57 448.198 136.191 448.036 136.794C445.339 146.86 434.993 152.833 424.928 150.136L401.87 143.958C401.266 143.796 400.908 143.175 401.07 142.571Z" fill="white"/>
<path opacity="0.5" d="M401.069 191.244C403.767 181.179 414.112 175.206 424.178 177.903L447.235 184.081C447.839 184.243 448.198 184.864 448.036 185.468C445.339 195.533 434.993 201.506 424.928 198.809L401.87 192.631C401.266 192.469 400.908 191.848 401.069 191.244Z" fill="white"/>
<path opacity="0.5" d="M401.07 241.918C403.767 231.852 414.112 225.879 424.178 228.576L447.235 234.754C447.839 234.916 448.198 235.537 448.036 236.141C445.339 246.206 434.993 252.179 424.928 249.482L401.87 243.304C401.266 243.142 400.908 242.522 401.07 241.918Z" fill="white"/>
<path opacity="0.5" d="M401.07 294.591C403.767 284.525 414.112 278.552 424.178 281.249L447.235 287.427C447.839 287.589 448.198 288.21 448.036 288.814C445.339 298.879 434.993 304.853 424.928 302.156L401.87 295.977C401.266 295.815 400.908 295.195 401.07 294.591Z" fill="white"/>
<path opacity="0.5" d="M401.069 349.264C403.767 339.199 414.112 333.225 424.178 335.922L447.235 342.101C447.839 342.262 448.198 342.883 448.036 343.487C445.339 353.552 434.993 359.526 424.928 356.829L401.87 350.65C401.266 350.489 400.908 349.868 401.069 349.264Z" fill="white"/>
<path opacity="0.5" d="M401.07 397.937C403.767 387.872 414.112 381.898 424.178 384.595L447.235 390.774C447.839 390.936 448.198 391.556 448.036 392.16C445.339 402.226 434.993 408.199 424.928 405.502L401.87 399.324C401.266 399.162 400.908 398.541 401.07 397.937Z" fill="white"/>
<path opacity="0.5" d="M368.246 14.3304C370.515 5.86367 379.218 0.839116 387.685 3.10778L407.08 8.30478C407.588 8.4409 407.89 8.96307 407.754 9.47108C405.485 17.9378 396.782 22.9624 388.315 20.6937L368.92 15.4967C368.412 15.3606 368.11 14.8384 368.246 14.3304Z" fill="white"/>
<path opacity="0.5" d="M368.246 63.132C370.515 54.6652 379.218 49.6406 387.685 51.9093L407.08 57.1063C407.588 57.2424 407.89 57.7646 407.754 58.2726C405.485 66.7394 396.782 71.7639 388.315 69.4953L368.92 64.2982C368.412 64.1621 368.11 63.64 368.246 63.132Z" fill="white"/>
<path opacity="0.5" d="M368.246 116.933C370.515 108.467 379.218 103.442 387.685 105.711L407.08 110.908C407.588 111.044 407.89 111.566 407.754 112.074C405.485 120.541 396.782 125.565 388.315 123.297L368.92 118.1C368.412 117.964 368.11 117.441 368.246 116.933Z" fill="white"/>
<path opacity="0.5" d="M368.246 219.537C370.515 211.07 379.218 206.045 387.685 208.314L407.08 213.511C407.588 213.647 407.89 214.169 407.754 214.677C405.485 223.144 396.782 228.168 388.315 225.9L368.92 220.703C368.412 220.567 368.11 220.045 368.246 219.537Z" fill="white"/>
<path opacity="0.5" d="M368.246 273.338C370.515 264.871 379.218 259.847 387.685 262.115L407.08 267.312C407.588 267.448 407.89 267.971 407.754 268.479C405.485 276.945 396.782 281.97 388.315 279.701L368.92 274.504C368.412 274.368 368.11 273.846 368.246 273.338Z" fill="white"/>
<path opacity="0.5" d="M368.246 323.14C370.515 314.673 379.218 309.648 387.685 311.917L407.08 317.114C407.588 317.25 407.89 317.772 407.754 318.28C405.485 326.747 396.782 331.771 388.315 329.503L368.92 324.306C368.412 324.17 368.11 323.648 368.246 323.14Z" fill="white"/>
<path opacity="0.5" d="M368.246 372.941C370.515 364.474 379.218 359.45 387.685 361.718L407.08 366.915C407.588 367.051 407.89 367.574 407.754 368.082C405.485 376.548 396.782 381.573 388.315 379.304L368.92 374.107C368.412 373.971 368.11 373.449 368.246 372.941Z" fill="white"/>
<path opacity="0.5" d="M340.98 38.6476C342.852 31.6625 350.031 27.5173 357.016 29.3889L373.018 33.6764C373.437 33.7887 373.685 34.2195 373.573 34.6386C371.702 41.6237 364.522 45.769 357.537 43.8973L341.535 39.6098C341.116 39.4975 340.868 39.0667 340.98 38.6476Z" fill="white"/>
<path opacity="0.5" d="M340.98 87.9339C342.852 80.9488 350.031 76.8035 357.016 78.6752L373.018 82.9627C373.437 83.075 373.685 83.5058 373.573 83.9249C371.702 90.91 364.522 95.0552 357.537 93.1836L341.535 88.8961C341.116 88.7838 340.868 88.353 340.98 87.9339Z" fill="white"/>
<path opacity="0.5" d="M340.98 144.22C342.852 137.235 350.031 133.09 357.016 134.961L373.018 139.249C373.437 139.361 373.685 139.792 373.573 140.211C371.702 147.196 364.522 151.341 357.537 149.47L341.535 145.182C341.116 145.07 340.868 144.639 340.98 144.22Z" fill="white"/>
<path opacity="0.5" d="M340.98 192.506C342.852 185.521 350.031 181.376 357.016 183.248L373.018 187.535C373.437 187.647 373.685 188.078 373.573 188.497C371.702 195.482 364.522 199.628 357.537 197.756L341.535 193.469C341.116 193.356 340.868 192.925 340.98 192.506Z" fill="white"/>
<path opacity="0.5" d="M340.98 243.793C342.852 236.808 350.031 232.662 357.016 234.534L373.018 238.821C373.437 238.934 373.685 239.365 373.573 239.784C371.702 246.769 364.522 250.914 357.537 249.042L341.535 244.755C341.116 244.642 340.868 244.212 340.98 243.793Z" fill="white"/>
<path opacity="0.5" d="M340.98 298.079C342.852 291.094 350.031 286.949 357.016 288.82L373.018 293.108C373.437 293.22 373.685 293.651 373.573 294.07C371.702 301.055 364.522 305.2 357.537 303.329L341.535 299.041C341.116 298.929 340.868 298.498 340.98 298.079Z" fill="white"/>
<path opacity="0.5" d="M340.98 347.365C342.852 340.38 350.031 336.235 357.016 338.106L373.018 342.394C373.437 342.506 373.685 342.937 373.573 343.356C371.702 350.341 364.522 354.486 357.537 352.615L341.535 348.327C341.116 348.215 340.868 347.784 340.98 347.365Z" fill="white"/>
<path opacity="0.5" d="M319.16 114.965C320.635 109.461 326.292 106.195 331.795 107.67L344.402 111.048C344.732 111.137 344.928 111.476 344.84 111.806C343.365 117.31 337.708 120.576 332.205 119.101L319.598 115.723C319.268 115.634 319.072 115.295 319.16 114.965Z" fill="white"/>
<path opacity="0.5" d="M319.16 161.796C320.635 156.293 326.292 153.027 331.795 154.502L344.402 157.88C344.732 157.968 344.928 158.308 344.84 158.638C343.365 164.141 337.708 167.407 332.205 165.933L319.598 162.554C319.268 162.466 319.072 162.127 319.16 161.796Z" fill="white"/>
<path opacity="0.5" d="M319.16 269.594C320.635 264.091 326.292 260.825 331.795 262.299L344.402 265.678C344.732 265.766 344.928 266.105 344.84 266.436C343.365 271.939 337.708 275.205 332.205 273.73L319.598 270.352C319.268 270.264 319.072 269.924 319.16 269.594Z" fill="white"/>
<path opacity="0.5" d="M319.16 322.365C320.635 316.862 326.292 313.596 331.795 315.07L344.402 318.449C344.732 318.537 344.928 318.876 344.84 319.207C343.365 324.71 337.708 327.976 332.205 326.501L319.598 323.123C319.268 323.035 319.072 322.695 319.16 322.365Z" fill="white"/>
<path opacity="0.5" d="M291.148 141.198C292.509 136.118 297.731 133.103 302.811 134.465L314.448 137.583C314.753 137.665 314.934 137.978 314.852 138.283C313.491 143.363 308.269 146.377 303.189 145.016L291.552 141.898C291.247 141.816 291.066 141.503 291.148 141.198Z" fill="white"/>
<path opacity="0.5" d="M291.148 192.427C292.509 187.347 297.731 184.333 302.811 185.694L314.448 188.812C314.753 188.894 314.934 189.207 314.852 189.512C313.491 194.592 308.269 197.607 303.189 196.245L291.552 193.127C291.247 193.045 291.066 192.732 291.148 192.427Z" fill="white"/>
<path opacity="0.5" d="M291.148 292.933C292.509 287.853 297.731 284.838 302.811 286.199L314.448 289.318C314.753 289.399 314.934 289.713 314.852 290.017C313.491 295.097 308.269 298.112 303.189 296.751L291.552 293.633C291.247 293.551 291.066 293.238 291.148 292.933Z" fill="white"/>
<path opacity="0.5" d="M291.148 240.933C292.509 235.853 297.731 232.838 302.811 234.199L314.448 237.318C314.753 237.399 314.934 237.713 314.852 238.017C313.491 243.097 308.269 246.112 303.189 244.751L291.552 241.633C291.247 241.551 291.066 241.238 291.148 240.933Z" fill="white"/>
<path opacity="0.5" d="M291.148 344.645C292.509 339.565 297.731 336.55 302.811 337.911L314.448 341.029C314.753 341.111 314.934 341.424 314.852 341.729C313.491 346.809 308.269 349.824 303.189 348.463L291.552 345.344C291.247 345.263 291.066 344.949 291.148 344.645Z" fill="white"/>
<path opacity="0.5" d="M264.123 12.6652C265.258 8.43183 269.609 5.91956 273.842 7.05389L283.54 9.65239C283.794 9.72045 283.945 9.98153 283.877 10.2355C282.742 14.4689 278.391 16.9812 274.158 15.8469L264.46 13.2484C264.206 13.1803 264.055 12.9192 264.123 12.6652Z" fill="white"/>
<path opacity="0.5" d="M233.123 37.6652C234.257 33.4318 238.609 30.9196 242.842 32.0539L252.54 34.6524C252.794 34.7205 252.945 34.9815 252.877 35.2355C251.742 39.4689 247.391 41.9812 243.158 40.8469L233.46 38.2484C233.206 38.1803 233.055 37.9192 233.123 37.6652Z" fill="white"/>
<path opacity="0.5" d="M105.123 137.111C106.258 132.878 110.609 130.365 114.842 131.5L124.54 134.098C124.794 134.166 124.945 134.427 124.877 134.681C123.742 138.915 119.391 141.427 115.158 140.293L105.46 137.694C105.206 137.626 105.055 137.365 105.123 137.111Z" fill="white"/>
<path opacity="0.5" d="M264.123 115.778C265.258 111.544 269.609 109.032 273.842 110.166L283.54 112.765C283.794 112.833 283.945 113.094 283.877 113.348C282.742 117.581 278.391 120.093 274.158 118.959L264.46 116.361C264.206 116.293 264.055 116.032 264.123 115.778Z" fill="white"/>
<path opacity="0.5" d="M168.123 137.204C169.258 132.971 173.609 130.458 177.842 131.593L187.54 134.191C187.794 134.259 187.945 134.52 187.877 134.774C186.742 139.008 182.391 141.52 178.158 140.386L168.46 137.787C168.206 137.719 168.055 137.458 168.123 137.204Z" fill="white"/>
<path opacity="0.5" d="M233.123 137.204C234.258 132.971 238.609 130.458 242.842 131.593L252.54 134.191C252.794 134.259 252.945 134.52 252.877 134.774C251.742 139.008 247.391 141.52 243.158 140.386L233.46 137.787C233.206 137.719 233.055 137.458 233.123 137.204Z" fill="white"/>
<path opacity="0.5" d="M202.123 162.204C203.258 157.971 207.609 155.458 211.842 156.593L221.54 159.191C221.794 159.259 221.945 159.52 221.877 159.774C220.742 164.008 216.391 166.52 212.158 165.386L202.46 162.787C202.206 162.719 202.055 162.458 202.123 162.204Z" fill="white"/>
<path opacity="0.5" d="M203.123 267.204C204.258 262.971 208.609 260.458 212.842 261.593L222.54 264.191C222.794 264.259 222.945 264.52 222.877 264.774C221.742 269.008 217.391 271.52 213.158 270.386L203.46 267.787C203.206 267.719 203.055 267.458 203.123 267.204Z" fill="white"/>
<path opacity="0.5" d="M264.123 267.665C265.258 263.432 269.609 260.92 273.842 262.054L283.54 264.652C283.794 264.72 283.945 264.982 283.877 265.236C282.742 269.469 278.391 271.981 274.158 270.847L264.46 268.248C264.206 268.18 264.055 267.919 264.123 267.665Z" fill="white"/>
<path opacity="0.5" d="M203.123 320.665C204.258 316.432 208.609 313.92 212.842 315.054L222.54 317.652C222.794 317.72 222.945 317.982 222.877 318.236C221.742 322.469 217.391 324.981 213.158 323.847L203.46 321.248C203.206 321.18 203.055 320.919 203.123 320.665Z" fill="white"/>
<path opacity="0.5" d="M264.123 320.665C265.258 316.432 269.609 313.92 273.842 315.054L283.54 317.652C283.794 317.72 283.945 317.982 283.877 318.236C282.742 322.469 278.391 324.981 274.158 323.847L264.46 321.248C264.206 321.18 264.055 320.919 264.123 320.665Z" fill="white"/>
<path opacity="0.5" d="M40.1232 342.665C41.2576 338.432 45.609 335.92 49.8423 337.054L59.5401 339.652C59.7941 339.72 59.9448 339.982 59.8768 340.236C58.7424 344.469 54.391 346.981 50.1577 345.847L40.4599 343.248C40.2059 343.18 40.0552 342.919 40.1232 342.665Z" fill="white"/>
<path opacity="0.5" d="M264.123 371.665C265.258 367.432 269.609 364.92 273.842 366.054L283.54 368.652C283.794 368.72 283.945 368.982 283.877 369.236C282.742 373.469 278.391 375.981 274.158 374.847L264.46 372.248C264.206 372.18 264.055 371.919 264.123 371.665Z" fill="white"/>
</g>
</g>
<path d="M414.425 49.5747H411.947L410.475 58H406.326L409.908 37.3828H414.057L412.613 45.6382H414.34L420.67 37.3828H425.994L417.951 47.3516L422.851 58H418.107L414.425 49.5747ZM444.487 37.3828L440.919 58H436.756L439.729 40.8237H434.448L432.494 49.9004C431.833 52.7324 430.898 54.7809 429.69 56.0459C428.491 57.3014 426.966 57.9528 425.116 58H423.389L423.884 54.5874L424.507 54.5308C425.64 54.3986 426.57 53.818 427.297 52.7891C428.024 51.7507 428.571 50.1222 428.939 47.9038L429.194 46.417L431.049 37.3828H444.487ZM453.946 47.1108L459.271 37.3828H463.943L454.286 53.9785C453.437 55.5361 452.526 56.6548 451.553 57.3345C450.59 58.0047 449.462 58.3398 448.169 58.3398L446.569 58.269L446.88 54.8281L447.9 54.9272C448.551 54.9272 449.104 54.7809 449.557 54.4883C450.01 54.1956 450.439 53.6859 450.845 52.959L451.383 52.0669L446.979 37.3828H451.213L453.946 47.1108ZM478.599 40.8237H469.678L468.984 44.8169L471.689 44.8311C473.945 44.8405 475.715 45.4258 476.999 46.5869C478.283 47.748 478.854 49.2915 478.712 51.2173C478.561 53.2658 477.702 54.9084 476.135 56.145C474.568 57.3817 472.572 58 470.146 58H462.499L466.082 37.3828H479.194L478.599 40.8237ZM468.39 48.2437L467.285 54.5874L470.315 54.6016C471.41 54.6016 472.35 54.2948 473.133 53.6812C473.926 53.0581 474.403 52.2227 474.563 51.1748C474.686 50.3158 474.512 49.6266 474.04 49.1074C473.568 48.5788 472.855 48.2956 471.901 48.2578L468.39 48.2437Z" fill="#EA001B"/>
<path d="M426.037 64.3828L422.454 85H418.291L419.792 77.1553C418.631 77.4479 417.338 77.5848 415.912 77.5659C413.59 77.547 411.81 76.924 410.574 75.6968C409.337 74.4601 408.841 72.8081 409.087 70.7407L410.149 64.3828H414.298L413.25 70.7549C413.099 71.8971 413.245 72.742 413.689 73.2896C414.142 73.8276 414.944 74.1108 416.096 74.1392C417.097 74.1675 418.447 74.0495 420.146 73.7852L421.874 64.3828H426.037ZM439.616 76.0649H431.715L430.752 81.5874H440.041L439.446 85H426.008L429.591 64.3828H443L442.392 67.8237H433.145L432.281 72.7373H440.211L439.616 76.0649ZM450.888 64.3828L453.422 79.2935L461.111 64.3828H466.634L463.051 85H458.888L459.908 79.1235L461.918 69.9478L454.017 85H451.171L448.41 69.4238L447.079 79.5767L446.13 85H441.981L445.563 64.3828H450.888ZM483.088 85H478.925L481.898 67.8237H473.926L470.938 85H466.79L470.372 64.3828H486.656L483.088 85ZM502.247 64.3828H506.551L502.969 85H498.806L501.142 71.5762L490.961 85H486.67L490.253 64.3828H494.402L492.065 77.8208L502.247 64.3828ZM514.948 85.2832C513.579 85.2549 512.371 84.9339 511.323 84.3203C510.285 83.6973 509.459 82.8052 508.845 81.644C508.241 80.4735 507.892 79.133 507.797 77.6226C507.694 76.0744 507.859 74.4224 508.293 72.6665C508.727 70.9106 509.426 69.3672 510.389 68.0361C511.352 66.7051 512.48 65.7091 513.773 65.0483C515.076 64.3875 516.482 64.0713 517.993 64.0996C519.38 64.1279 520.593 64.4583 521.632 65.0908C522.67 65.7139 523.487 66.6154 524.082 67.7954C524.676 68.966 525.016 70.297 525.101 71.7886C525.195 73.45 525.016 75.1587 524.563 76.9146C524.11 78.6704 523.407 80.1903 522.453 81.4741C521.5 82.758 520.381 83.7209 519.097 84.3628C517.823 85.0047 516.44 85.3115 514.948 85.2832ZM520.825 74.125L520.938 72.7798C521.032 71.0994 520.806 69.825 520.258 68.9565C519.72 68.0881 518.899 67.6349 517.794 67.5972C516.067 67.5405 514.693 68.3052 513.674 69.8911C512.664 71.4771 512.093 73.6955 511.96 76.5464C511.866 78.2173 512.088 79.5059 512.626 80.4121C513.164 81.3089 514 81.7762 515.132 81.814C516.614 81.88 517.842 81.3042 518.814 80.0864C519.786 78.8592 520.424 77.127 520.726 74.8896L520.825 74.125ZM542.546 85H538.397L539.927 76.1641H531.926L530.383 85H526.234L529.816 64.3828H533.965L532.507 72.7373H540.521L541.966 64.3828H546.115L542.546 85ZM554.54 85.2832C553.171 85.2549 551.963 84.9339 550.915 84.3203C549.877 83.6973 549.051 82.8052 548.437 81.644C547.833 80.4735 547.484 79.133 547.389 77.6226C547.285 76.0744 547.451 74.4224 547.885 72.6665C548.319 70.9106 549.018 69.3672 549.98 68.0361C550.943 66.7051 552.071 65.7091 553.365 65.0483C554.667 64.3875 556.074 64.0713 557.584 64.0996C558.972 64.1279 560.185 64.4583 561.224 65.0908C562.262 65.7139 563.079 66.6154 563.673 67.7954C564.268 68.966 564.608 70.297 564.693 71.7886C564.787 73.45 564.608 75.1587 564.155 76.9146C563.702 78.6704 562.998 80.1903 562.045 81.4741C561.091 82.758 559.973 83.7209 558.689 84.3628C557.415 85.0047 556.032 85.3115 554.54 85.2832ZM560.417 74.125L560.53 72.7798C560.624 71.0994 560.398 69.825 559.85 68.9565C559.312 68.0881 558.491 67.6349 557.386 67.5972C555.659 67.5405 554.285 68.3052 553.266 69.8911C552.256 71.4771 551.684 73.6955 551.552 76.5464C551.458 78.2173 551.68 79.5059 552.218 80.4121C552.756 81.3089 553.591 81.7762 554.724 81.814C556.206 81.88 557.433 81.3042 558.406 80.0864C559.378 78.8592 560.015 77.127 560.317 74.8896L560.417 74.125ZM565.826 85L569.408 64.3828L575.837 64.397C578.225 64.4064 580.019 64.8926 581.218 65.8555C582.417 66.8184 582.959 68.173 582.846 69.9194C582.714 72.0057 581.51 73.5303 579.235 74.4932C580.057 74.7764 580.694 75.3097 581.147 76.0933C581.6 76.8674 581.794 77.783 581.728 78.8403C581.595 80.785 580.831 82.3001 579.434 83.3857C578.046 84.4619 576.148 85 573.741 85H565.826ZM571.546 76.0225L570.569 81.5874L573.84 81.6016C574.86 81.6016 575.714 81.3514 576.403 80.8511C577.092 80.3413 577.503 79.6569 577.635 78.7979C577.767 77.9482 577.649 77.2874 577.281 76.8154C576.923 76.334 576.314 76.0744 575.455 76.0366L571.546 76.0225ZM572.056 73.0205L574.874 73.0488C575.922 73.0299 576.776 72.7845 577.437 72.3125C578.107 71.8405 578.508 71.1844 578.641 70.3442C578.877 68.6828 578.003 67.8473 576.021 67.8379L572.962 67.8237L572.056 73.0205Z" fill="white"/>
<path d="M53 74.3004H69.6348V57.8123C66.1689 64.3813 59.6694 68.65 53 70.2942C53 71.537 53 74.3082 53 74.3082" fill="white"/>
<path d="M58.3185 66.0101C62.2216 63.9631 65.4633 60.8499 67.6664 57.0327C67.6664 57.0327 67.6664 55.1338 67.6664 55.0875C64.1653 53.9432 60.971 52.0161 58.3262 49.4525C58.3262 53.9759 58.3262 66.0332 58.3262 66.0332" fill="white"/>
<path d="M59.2139 41.0849C59.2139 41.0849 59.2139 46.1178 59.2139 47.376C60.4896 48.6345 61.8946 49.7548 63.4054 50.7184V43.9719C61.8974 43.1773 60.488 42.2084 59.2062 41.0849" fill="white"/>
<path d="M83.8766 46.3648C83.8255 45.9479 83.6513 45.5556 83.3763 45.2381C83.1014 44.9205 82.7381 44.692 82.3328 44.5817C81.8674 44.4343 81.3847 44.3486 80.897 44.327C80.5577 44.3074 80.2175 44.3074 79.8781 44.327H79.7392V42.4203H81.3447L83.1124 42.6751L83.1819 41.0695H77.7631L77.9792 43.0687V47.5458L77.7245 49.6686H79.7469C80.0093 49.6686 80.2872 49.6686 80.5574 49.6686H80.789C81.6541 49.6947 82.5019 49.4222 83.1896 48.8967C83.5182 48.5734 83.755 48.1686 83.8757 47.7237C83.9964 47.2788 83.9967 46.8099 83.8766 46.3648ZM82.0935 46.8048C82.1065 46.9718 82.1065 47.1396 82.0935 47.3066C82.0722 47.4904 82.0023 47.6652 81.8911 47.8131C81.7799 47.9609 81.6312 48.0765 81.4605 48.1479C80.9319 48.3498 80.3594 48.4084 79.8009 48.3178V45.7859C80.4043 45.6569 81.0329 45.719 81.5995 45.9634C81.7647 46.0375 81.9038 46.1596 81.9988 46.3137C82.0938 46.4679 82.1402 46.6471 82.1321 46.828" fill="white"/>
<path d="M89.3341 42.0652L89.0716 41H87.2731L87.0646 41.934L84.8878 47.5999L83.9307 49.63H85.8219L86.1538 48.0862L86.6092 46.9129H89.3186L89.9439 48.4104L90.2758 49.6146H92.7151L91.8891 48.1788L89.3341 42.0652ZM88.8015 45.6315H87.0878C87.2499 45.2224 87.4274 44.8055 87.5973 44.3964C87.7671 43.9873 87.8597 43.7866 87.9832 43.4856L88.8015 45.6315Z" fill="white"/>
<path d="M106.826 49.6532H109.311L105.359 45.1761L109.064 41.0849H106.88L106.262 41.9881C106.262 41.9881 104.556 43.8252 103.653 44.821V42.5979L103.908 41.054H101.631L101.77 42.5979V47.8855L101.631 49.6377H103.946L103.653 47.9086V45.7782L106.826 49.6532Z" fill="white"/>
<path d="M100.087 47.075C100.087 46.5038 100.087 42.6365 100.087 42.6365L100.288 41.0926H98.0336L98.2188 42.5824C98.2188 42.5824 98.2188 43.7094 98.2188 44.381H95.0308C94.9773 43.3947 95.0551 42.4057 95.2624 41.44L95.355 41.0926H93.0393V41.4091C93.0393 41.5172 93.1859 42.7137 93.2091 43.2617C93.2091 44.4196 93.2091 45.5775 93.2091 46.7353V46.9901C93.2091 47.4764 93.0933 48.9662 93.047 49.2286L92.9775 49.5683H95.2469L95.2084 49.2518L95.1466 48.6806C95.0848 48.2406 95.0308 47.816 95.0077 47.3915C94.9845 46.9669 95.0077 46.5192 95.0077 46.0869V45.7859H98.2574C98.2574 45.9943 98.2574 46.2104 98.2574 46.4188C98.3198 47.3639 98.2444 48.313 98.0336 49.2363L97.9409 49.5914H100.311L100.249 49.2595C100.129 48.5377 100.075 47.8065 100.087 47.075Z" fill="white"/>
<path d="M128.532 53.8756L128.601 53.5359H123.754V53.8601C123.931 55.3113 124.055 56.6699 124.132 58.0207C124.194 58.9934 124.178 59.9891 124.132 60.954C124.132 61.3014 124.132 61.641 124.132 61.9884H115.131C114.974 59.2767 115.179 56.5562 115.741 53.8987L115.826 53.5436H110.84V53.8678C110.84 53.8678 111.218 57.133 111.264 58.6692C111.357 61.6256 111.334 64.6438 111.264 67.5616V68.2563C111.264 69.5223 110.963 73.3973 110.832 74.092L110.762 74.4317H115.571V74.1152C115.517 73.6134 115.448 73.1117 115.386 72.5714C115.247 71.4675 115.101 70.3328 115.039 69.2135C114.977 68.0942 114.993 66.9441 115.039 65.8402C115.039 65.4311 115.039 65.0297 115.039 64.6206H124.263C124.263 65.3153 124.263 66.0101 124.263 66.6894C124.416 69.1547 124.216 71.6293 123.669 74.038L123.576 74.4008H128.578L128.517 74.0612C128.188 72.1985 128.031 70.3098 128.046 68.4184C128.046 66.8746 128.046 60.0354 128.107 58.1442C128.131 56.7 128.268 55.2598 128.517 53.837" fill="white"/>
<path d="M98.983 71.8843V64.4817C101.299 64.5434 105.714 64.8908 105.76 64.8985H106.061V61.5021L98.9676 61.9035V56.091C101.09 56.091 105.043 56.0446 107.096 56.6853L107.42 56.7857L107.466 56.4538C107.534 55.5751 107.534 54.6925 107.466 53.8138V53.5513H94.6834L94.7375 53.8756C95.0868 56.601 95.2108 59.3506 95.108 62.0965C95.108 62.714 95.108 63.3392 95.108 63.9645C95.1466 67.9785 94.6834 74.0534 94.6834 74.1538V74.4548L107.405 74.5166V74.2387C107.405 73.5594 107.49 71.7454 107.52 71.483V71.097L107.142 71.1742C104.438 71.7112 101.686 71.9699 98.929 71.9461" fill="white"/>
<path d="M88.1144 62.7294L88.292 62.6136C89.4421 61.8417 90.7698 60.6838 90.847 58.7541C90.9648 57.526 90.6106 56.2991 89.8564 55.3228C89.1023 54.3464 88.0047 53.6937 86.7868 53.4973C84.3676 52.9592 81.851 53.0495 79.4767 53.7598C78.2185 54.1071 78.0023 54.2152 78.0409 54.5317C78.1181 55.0797 78.2262 55.6973 78.3266 56.2916C78.4037 56.7316 78.4809 57.1716 78.5504 57.6039C78.5617 57.6806 78.5945 57.7525 78.6451 57.8113C78.6956 57.8701 78.7619 57.9132 78.836 57.9358C78.9111 57.9497 78.9885 57.9434 79.0603 57.9177C79.1322 57.8919 79.196 57.8476 79.2451 57.7892L79.4072 57.6116C80.0298 56.9686 80.7859 56.4701 81.6222 56.1513C82.4585 55.8325 83.3546 55.7012 84.2471 55.7667C84.8413 55.754 85.4222 55.9434 85.8947 56.3038C86.3673 56.6641 86.7036 57.1742 86.8485 57.7506C87.1881 59.2944 86.6169 60.6916 85.3973 61.2319C84.7323 61.5148 84.0348 61.7145 83.3208 61.8263C82.5489 61.9729 81.0051 62.0733 80.9588 62.0733H80.6809L80.789 64.7518H81.0669C81.0669 64.7518 82.4717 64.7055 83.6296 64.7055C84.6915 64.6931 85.7439 64.9062 86.7173 65.3308C87.0821 65.5445 87.3992 65.8308 87.6488 66.1721C87.8984 66.5133 88.0753 66.9022 88.1685 67.3146C88.4001 68.4956 88.6008 71.3286 85.5208 72.0001C82.85 72.5868 80.6809 72.0001 79.0599 70.2556L78.6199 69.7847L78.4501 69.6072C78.3953 69.548 78.3231 69.5078 78.244 69.4926C78.1648 69.4773 78.0829 69.4877 78.0101 69.5223C77.942 69.5431 77.8816 69.5835 77.8363 69.6384C77.791 69.6933 77.7628 69.7603 77.7553 69.8311L77.6704 70.4872C77.5932 71.1202 77.5238 71.7222 77.4311 72.3166C77.3893 72.5328 77.4233 72.7568 77.5273 72.9508C77.6314 73.1449 77.7991 73.2971 78.0023 73.3819C79.7988 74.3839 81.8196 74.915 83.8766 74.9257C84.2857 74.9257 84.6949 74.9257 85.1117 74.8717C86.7688 74.7367 88.3473 74.1074 89.6428 73.0654C90.4836 72.4528 91.152 71.6335 91.5834 70.6869C92.0147 69.7403 92.1945 68.6984 92.1053 67.662C91.8891 65.2768 90.5614 63.6326 88.0836 62.7757" fill="white"/>
<path d="M149.111 65.3231V62.7757C149.006 59.8025 149.174 56.8258 149.613 53.8833L149.675 53.5513H144.688L144.75 53.8833C144.92 54.771 145.059 55.7204 145.182 56.7008C145.209 56.8091 145.208 56.9222 145.179 57.03C145.151 57.1378 145.096 57.2369 145.02 57.3183C143.43 59.0165 141.878 60.7456 140.389 62.4129C139.022 63.9568 137.61 65.5006 136.166 67.0444C136.166 65.7399 136.166 64.4354 136.166 63.1849C136.097 59.9814 136.043 56.9555 136.83 53.9219L136.923 53.5668H131.813L131.921 53.9373C132.318 55.4709 132.482 57.0557 132.407 58.6383V60.1821C132.407 62.8993 132.407 65.7167 132.407 68.4802C132.407 68.897 132.407 69.3139 132.407 69.723C132.461 70.494 132.461 71.2678 132.407 72.0387C132.347 72.5067 132.26 72.9707 132.145 73.4282C132.09 73.652 132.044 73.8682 131.99 74.092L131.921 74.4317H136.845L136.791 74.1075C136.683 73.4282 136.614 72.7566 136.544 72.1005C136.544 71.7222 136.46 71.3286 136.413 70.958C136.402 70.78 136.457 70.6041 136.568 70.464C137.972 68.9202 139.354 67.3764 140.69 65.9097C142.233 64.2192 143.777 62.4747 145.383 60.7533V61.2705C145.383 62.0424 145.383 62.8143 145.383 63.5863C145.383 64.5126 145.383 65.4466 145.383 66.3574C145.383 67.7546 145.383 69.1981 145.383 70.6107C145.327 71.4061 145.224 72.1974 145.074 72.9805C145.012 73.3433 144.951 73.7061 144.897 74.0766L144.85 74.4008H149.752L149.69 74.0689C149.252 71.1651 149.084 68.227 149.188 65.2922" fill="white"/>
<path d="M161.701 56.3302C161.701 56.3302 161.701 56.2222 161.701 56.1527L168 56.9246L167.599 53.4742H151.859L151.512 56.9246L158.258 56.1527V56.5155C158.258 59.1323 158.258 68.8662 158.258 69.3293L157.61 74.4317H162.388L161.786 69.4219C161.786 69.3293 161.724 60.6453 161.709 56.2994" fill="white"/>
<rect x="189" y="31" width="2" height="60" fill="#C4C4C4"/>
<g clip-path="url(#clip0)">
<path d="M223.076 47.9479C225.284 53.5518 221.683 57.1488 218.097 60.7517C214.759 64.4328 211.818 68.2593 217.732 75.1456C215.523 69.5424 219.124 65.9446 222.708 62.3454C226.049 58.6562 228.989 54.8349 223.076 47.9479Z" fill="white"/>
<path d="M217.732 40.7812C219.944 46.3874 216.345 49.9822 212.755 53.5829C209.418 57.2669 206.479 61.0933 212.395 67.9796C210.184 62.372 213.785 58.778 217.371 55.1773C220.71 51.4926 223.647 47.6675 217.732 40.7812Z" fill="white"/>
<path d="M308.486 62.9749V74.4291H313.503V70.236H319.015V67.7288H313.503V65.482H324.438V74.4291H329.455V65.482H334V62.9749H308.486Z" fill="white"/>
<path d="M297.722 71.9433V69.9578H304.264V67.4484H297.722V65.482H306.125V62.9749H292.706V74.4291H306.228V71.9433H297.722Z" fill="white"/>
<path d="M244.811 62.9749H230.909V65.482H235.352V74.4291H240.368V65.482H244.811V62.9749Z" fill="white"/>
<path d="M248.609 70.0891L250.931 65.6554L253.152 70.0891H248.609ZM254.716 62.9749H249.338L243.077 74.4291H246.338L247.367 72.4627H254.398L255.424 74.4291H260.98L254.716 62.9749Z" fill="white"/>
<path d="M286.55 62.9749V68.7013L278.527 62.9749H274.633V74.4291H278.067V68.1272L286.306 74.4291H289.983V62.9749H286.55Z" fill="white"/>
<path d="M272.929 62.9749H259.318V65.482H263.76V74.4291H268.778V65.482H272.929V62.9749Z" fill="white"/>
</g>
<defs>
<linearGradient id="paint0_linear" x1="598.5" y1="5.32096e-05" x2="1.54347e-05" y2="387" gradientUnits="userSpaceOnUse">
<stop stop-color="#2F4654"/>
<stop offset="1" stop-color="#11202D"/>
</linearGradient>
<clipPath id="clip0">
<rect x="209" y="40" width="125" height="35.1562" fill="white"/>
</clipPath>
</defs>
</svg>
