<svg width="24" height="24" viewBox="0 0 24 24" fill="none" xmlns="http://www.w3.org/2000/svg">
<g clip-path="url(#clip0)">
<path fill-rule="evenodd" clip-rule="evenodd" d="M1.571 23.6642L12.102 13.1632L15.814 16.8642L3.295 23.8052C2.819 24.0692 2.236 24.0652 1.763 23.7942L1.571 23.6642ZM11.04 12.1042L1 22.1152V2.09316L11.04 12.1042V12.1042ZM17.314 7.96716L22.219 10.6862C22.701 10.9542 23 11.4562 23 12.0002C23 12.5442 22.701 13.0462 22.219 13.3142L17.18 16.1072L13.165 12.1042L17.314 7.96716V7.96716ZM1.46 0.433164C1.55 0.346164 1.651 0.270164 1.763 0.206164C2.236 -0.0648356 2.819 -0.0688356 3.295 0.195164L15.948 7.21016L12.102 11.0452L1.46 0.433164Z" fill="white"/>
</g>
<defs>
<clipPath id="clip0">
<rect width="24" height="24" fill="white"/>
</clipPath>
</defs>
</svg>
