<svg width="156" height="50" viewBox="0 0 156 50" fill="none" xmlns="http://www.w3.org/2000/svg">
<path d="M118.877 32V49H126.176V42.7767H134.197V39.0556H126.176V35.721H142.086V49H149.387V35.721H156V32H118.877Z" fill="white"/>
<path d="M103.215 45.3107V42.3638H112.733V38.6395H103.215V35.721H115.441V32H95.9158V49H115.591V45.3107H103.215Z" fill="white"/>
<path d="M26.2274 32H6V35.721H12.464V49H19.7633V35.721H26.2274V32Z" fill="white"/>
<path d="M31.7542 42.5587L35.1317 35.9784L38.3642 42.5587H31.7542ZM40.6392 32H32.8149L23.7045 49H28.4486L29.9463 46.0816H40.1765L41.6698 49H49.7539L40.6392 32Z" fill="white"/>
<path d="M86.9589 32V40.4989L75.2848 32H69.6195V49H74.6159V39.6469L86.6036 49H91.9543V32H86.9589Z" fill="white"/>
<path d="M67.1395 32H47.3362V35.721H53.7991V49H61.0995V35.721H67.1395V32Z" fill="white"/>
</svg>
